<svg xmlns="http://www.w3.org/2000/svg" viewBox="0 0 512 512">
  <defs>
    <linearGradient id="grad" x1="0%" y1="0%" x2="100%" y2="100%">
      <stop offset="0%" stop-color="#F97316"/>
      <stop offset="100%" stop-color="#EA580C"/>
    </linearGradient>
  </defs>
  <rect width="512" height="512" rx="128" fill="url(#grad)"/>
  <path d="M128 176c0-26.5 21.5-48 48-48h192c26.5 0 48 21.5 48 48v192c0 26.5-21.5 48-48 48H176c-26.5 0-48-21.5-48-48V176z" fill="#FFFFFF" fill-opacity="0.2"/>
  <path d="M160 160h192v192H160z" fill="none"/>
  <path d="M192 160h128c17.7 0 32 14.3 32 32v128c0 17.7-14.3 32-32 32H192c-17.7 0-32-14.3-32-32V192c0-17.7 14.3-32 32-32z" fill="#FFFFFF"/>
  <path d="M224 224h64M224 256h64M224 288h48" stroke="#EA580C" stroke-width="8" stroke-linecap="round"/>
</svg>
